{
	"asset":{
		"generator":"Khronos glTF Blender I/O v4.2.60",
		"version":"2.0"
	},
	"extensionsUsed":[
		"KHR_materials_transmission",
		"KHR_materials_emissive_strength",
		"KHR_texture_transform"
	],
	"extensionsRequired":[
		"KHR_texture_transform"
	],
	"scene":0,
	"scenes":[
		{
			"name":"Scene",
			"nodes":[
				0,
				1,
				2,
				3
			]
		}
	],
	"nodes":[
		{
			"mesh":0,
			"name":"Bottle"
		},
		{
			"mesh":1,
			"name":"Rope"
		},
		{
			"mesh":2,
			"name":"Wax"
		},
		{
			"mesh":3,
			"name":"Potion"
		}
	],
	"materials":[
		{
			"doubleSided":true,
			"extensions":{
				"KHR_materials_transmission":{
					"transmissionFactor":1
				}
			},
			"name":"Bottle",
			"pbrMetallicRoughness":{
				"metallicFactor":0,
				"roughnessFactor":0.045909054577350616
			}
		},
		{
			"doubleSided":true,
			"name":"Rope",
			"pbrMetallicRoughness":{
				"baseColorTexture":{
					"extensions":{
						"KHR_texture_transform":{
							"offset":[
								-0.09758289159062314,
								0.004772599217237827
							],
							"rotation":0.09773842990398407
						}
					},
					"index":0
				},
				"metallicFactor":0,
				"roughnessFactor":0.5
			}
		},
		{
			"doubleSided":true,
			"name":"Wax",
			"pbrMetallicRoughness":{
				"baseColorFactor":[
					0.0014718355378136039,
					0.042020294815301895,
					0,
					1
				],
				"metallicFactor":0,
				"roughnessFactor":0.7318181991577148
			}
		},
		{
			"doubleSided":true,
			"emissiveFactor":[
				0,
				1,
				0.08011429757514135
			],
			"extensions":{
				"KHR_materials_emissive_strength":{
					"emissiveStrength":1.442641315390233
				}
			},
			"name":"Potion",
			"pbrMetallicRoughness":{
				"baseColorFactor":[
					0,
					0.8014674186706543,
					0.0642089992761612,
					1
				],
				"metallicFactor":0,
				"roughnessFactor":0.37272727489471436
			}
		}
	],
	"meshes":[
		{
			"name":"Cylinder",
			"primitives":[
				{
					"attributes":{
						"POSITION":0,
						"NORMAL":1,
						"TEXCOORD_0":2
					},
					"indices":3,
					"material":0
				}
			]
		},
		{
			"name":"Cylinder.001",
			"primitives":[
				{
					"attributes":{
						"POSITION":4,
						"NORMAL":5,
						"TEXCOORD_0":6
					},
					"indices":7,
					"material":1
				}
			]
		},
		{
			"name":"Cylinder.002",
			"primitives":[
				{
					"attributes":{
						"POSITION":8,
						"NORMAL":9,
						"TEXCOORD_0":10
					},
					"indices":11,
					"material":2
				}
			]
		},
		{
			"name":"Cylinder.003",
			"primitives":[
				{
					"attributes":{
						"POSITION":12,
						"NORMAL":13,
						"TEXCOORD_0":14
					},
					"indices":15,
					"material":3
				}
			]
		}
	],
	"textures":[
		{
			"sampler":0,
			"source":0
		}
	],
	"images":[
		{
			"mimeType":"image/png",
			"name":"rope_diff",
			"uri":"rope_diff.png"
		}
	],
	"accessors":[
		{
			"bufferView":0,
			"componentType":5126,
			"count":264,
			"max":[
				1.6577115058898926,
				3.9037342071533203,
				1.6577115058898926
			],
			"min":[
				-1.6577115058898926,
				0,
				-1.6577115058898926
			],
			"type":"VEC3"
		},
		{
			"bufferView":1,
			"componentType":5126,
			"count":264,
			"type":"VEC3"
		},
		{
			"bufferView":2,
			"componentType":5126,
			"count":264,
			"type":"VEC2"
		},
		{
			"bufferView":3,
			"componentType":5123,
			"count":1188,
			"type":"SCALAR"
		},
		{
			"bufferView":4,
			"componentType":5126,
			"count":52,
			"max":[
				0.47664743661880493,
				3.439953565597534,
				0.47664737701416016
			],
			"min":[
				-0.47664737701416016,
				3.0060060024261475,
				-0.47664743661880493
			],
			"type":"VEC3"
		},
		{
			"bufferView":5,
			"componentType":5126,
			"count":52,
			"type":"VEC3"
		},
		{
			"bufferView":6,
			"componentType":5126,
			"count":52,
			"type":"VEC2"
		},
		{
			"bufferView":7,
			"componentType":5123,
			"count":216,
			"type":"SCALAR"
		},
		{
			"bufferView":8,
			"componentType":5126,
			"count":43,
			"max":[
				0.6740209460258484,
				4.442159652709961,
				0.6740209460258484
			],
			"min":[
				-0.6740209460258484,
				3.4623148441314697,
				-0.6740209460258484
			],
			"type":"VEC3"
		},
		{
			"bufferView":9,
			"componentType":5126,
			"count":43,
			"type":"VEC3"
		},
		{
			"bufferView":10,
			"componentType":5126,
			"count":43,
			"type":"VEC2"
		},
		{
			"bufferView":11,
			"componentType":5123,
			"count":198,
			"type":"SCALAR"
		},
		{
			"bufferView":12,
			"componentType":5126,
			"count":62,
			"max":[
				1.6080491542816162,
				1.6857253313064575,
				1.6080491542816162
			],
			"min":[
				-1.6080491542816162,
				0.04986989498138428,
				-1.6080491542816162
			],
			"type":"VEC3"
		},
		{
			"bufferView":13,
			"componentType":5126,
			"count":62,
			"type":"VEC3"
		},
		{
			"bufferView":14,
			"componentType":5126,
			"count":62,
			"type":"VEC2"
		},
		{
			"bufferView":15,
			"componentType":5123,
			"count":324,
			"type":"SCALAR"
		}
	],
	"bufferViews":[
		{
			"buffer":0,
			"byteLength":3168,
			"byteOffset":0,
			"target":34962
		},
		{
			"buffer":0,
			"byteLength":3168,
			"byteOffset":3168,
			"target":34962
		},
		{
			"buffer":0,
			"byteLength":2112,
			"byteOffset":6336,
			"target":34962
		},
		{
			"buffer":0,
			"byteLength":2376,
			"byteOffset":8448,
			"target":34963
		},
		{
			"buffer":0,
			"byteLength":624,
			"byteOffset":10824,
			"target":34962
		},
		{
			"buffer":0,
			"byteLength":624,
			"byteOffset":11448,
			"target":34962
		},
		{
			"buffer":0,
			"byteLength":416,
			"byteOffset":12072,
			"target":34962
		},
		{
			"buffer":0,
			"byteLength":432,
			"byteOffset":12488,
			"target":34963
		},
		{
			"buffer":0,
			"byteLength":516,
			"byteOffset":12920,
			"target":34962
		},
		{
			"buffer":0,
			"byteLength":516,
			"byteOffset":13436,
			"target":34962
		},
		{
			"buffer":0,
			"byteLength":344,
			"byteOffset":13952,
			"target":34962
		},
		{
			"buffer":0,
			"byteLength":396,
			"byteOffset":14296,
			"target":34963
		},
		{
			"buffer":0,
			"byteLength":744,
			"byteOffset":14692,
			"target":34962
		},
		{
			"buffer":0,
			"byteLength":744,
			"byteOffset":15436,
			"target":34962
		},
		{
			"buffer":0,
			"byteLength":496,
			"byteOffset":16180,
			"target":34962
		},
		{
			"buffer":0,
			"byteLength":648,
			"byteOffset":16676,
			"target":34963
		}
	],
	"samplers":[
		{
			"magFilter":9729,
			"minFilter":9987
		}
	],
	"buffers":[
		{
			"byteLength":17324,
			"uri":"Mana%20Potion.bin"
		}
	]
}
